<svg width="600" height="672" viewBox="0 0 600 672" fill="none" xmlns="http://www.w3.org/2000/svg">
<path d="M515.911 290.155V436.003L363.936 536.56V290.155L426.17 260.531C434.871 256.389 444.976 256.389 453.677 260.531L515.911 290.155Z" fill="#AA3D5B"/>
<path fill-rule="evenodd" clip-rule="evenodd" d="M363.93 290.155V536.56L211.955 436.003V290.155L274.189 260.531C282.891 256.389 292.995 256.389 301.697 260.531L363.93 290.155Z" fill="#E37A88"/>
<path d="M255.75 536.569L113.789 469.591C102.826 464.419 89.8823 465.885 80.354 473.378L0 536.569L210.282 667.184C215.351 670.332 221.2 672.001 227.167 672.001H290.986H363.934V536.569L211.959 436.012V290.164L127.868 0.0021719V436.012L255.75 536.569Z" fill="#DD475B"/>
<path fill-rule="evenodd" clip-rule="evenodd" d="M515.911 436.01V290.163L600 145.719L600.001 290.746V424.2C600.001 432.008 598.572 439.749 595.785 447.043L517.695 651.42C512.959 663.813 501.069 671.999 487.802 671.999H363.936V536.567L515.911 436.01Z" fill="#991C52"/>
</svg>
