<svg width="499" height="188" viewBox="0 0 499 188" fill="none" xmlns="http://www.w3.org/2000/svg">
<rect width="498.96" height="187.11" rx="71.28" fill="url(#paint0_linear_431_820)"/>
<path d="M105.323 81.7659V89.538H109.877C112.002 89.538 112.548 88.3236 112.548 86.6842V84.6197C112.548 82.9803 112.002 81.7659 109.877 81.7659H105.323ZM103.137 114.555H93.7859C92.2679 114.555 91.5999 113.887 91.5999 112.369V73.0222C91.5999 71.5042 92.2679 70.8363 93.7859 70.8363H114.006C123.114 70.8363 125.967 74.9652 125.967 80.9765V83.7696C125.967 87.17 125.117 89.5988 122.567 90.6917C127 91.1775 129.914 94.3956 129.914 99.4961V112.369C129.914 113.887 129.246 114.555 127.728 114.555H118.317C116.799 114.555 116.131 113.887 116.131 112.369V103.079C116.131 101.257 115.524 100.468 113.823 100.468H105.323V112.369C105.323 113.887 104.655 114.555 103.137 114.555ZM173.157 114.555H144.983C143.465 114.555 142.797 113.887 142.797 112.369V73.0222C142.797 71.5042 143.465 70.8363 144.983 70.8363H173.157C174.675 70.8363 175.343 71.5042 175.343 73.0222V80.1264C175.343 81.6444 174.675 82.3124 173.157 82.3124H156.398V86.9878H168.239C169.757 86.9878 170.424 87.6557 170.424 89.1737V95.6708C170.424 97.1888 169.757 97.8567 168.239 97.8567H156.398V103.079H173.157C174.675 103.079 175.343 103.747 175.343 105.265V112.369C175.343 113.887 174.675 114.555 173.157 114.555ZM200.195 114.555H190.784C189.266 114.555 188.598 113.887 188.598 112.369V73.0222C188.598 71.5042 189.266 70.8363 190.784 70.8363H209.364C220.415 70.8363 223.694 75.6332 223.694 82.6767V90.4488C223.694 97.4924 220.415 102.289 209.364 102.289H202.381V112.369C202.381 113.887 201.713 114.555 200.195 114.555ZM202.26 82.1909V91.3596H207.725C210.093 91.3596 210.578 89.9631 210.578 88.3844V85.1662C210.578 83.5875 210.093 82.1909 207.725 82.1909H202.26ZM266.419 114.555H238.245C236.727 114.555 236.059 113.887 236.059 112.369V73.0222C236.059 71.5042 236.727 70.8363 238.245 70.8363H266.419C267.937 70.8363 268.605 71.5042 268.605 73.0222V80.1264C268.605 81.6444 267.937 82.3124 266.419 82.3124H249.66V86.9878H261.501C263.019 86.9878 263.687 87.6557 263.687 89.1737V95.6708C263.687 97.1888 263.019 97.8567 261.501 97.8567H249.66V103.079H266.419C267.937 103.079 268.605 103.747 268.605 105.265V112.369C268.605 113.887 267.937 114.555 266.419 114.555ZM302.505 114.555H292.668C291.15 114.555 290.482 113.887 290.482 112.369V82.5552H281.556C280.038 82.5552 279.37 81.8873 279.37 80.3693V73.0222C279.37 71.5042 280.038 70.8363 281.556 70.8363H313.616C315.134 70.8363 315.802 71.5042 315.802 73.0222V80.3693C315.802 81.8873 315.134 82.5552 313.616 82.5552H304.691V112.369C304.691 113.887 304.023 114.555 302.505 114.555ZM328.994 114.555C327.476 114.555 326.808 113.887 326.808 112.369V105.143C326.808 103.625 327.476 102.957 328.994 102.957H335.005V82.5552H328.994C327.476 82.5552 326.808 81.8873 326.808 80.3693V73.0222C326.808 71.5042 327.476 70.8363 328.994 70.8363H354.861C356.379 70.8363 357.046 71.5042 357.046 73.0222V80.3693C357.046 81.8873 356.379 82.5552 354.861 82.5552H348.971V102.957H354.861C356.379 102.957 357.046 103.625 357.046 105.143V112.369C357.046 113.887 356.379 114.555 354.861 114.555H328.994ZM384.338 81.7659V89.538H388.892C391.017 89.538 391.564 88.3236 391.564 86.6842V84.6197C391.564 82.9803 391.017 81.7659 388.892 81.7659H384.338ZM382.152 114.555H372.801C371.283 114.555 370.615 113.887 370.615 112.369V73.0222C370.615 71.5042 371.283 70.8363 372.801 70.8363H393.021C402.129 70.8363 404.983 74.9652 404.983 80.9765V83.7696C404.983 87.17 404.133 89.5988 401.583 90.6917C406.015 91.1775 408.93 94.3956 408.93 99.4961V112.369C408.93 113.887 408.262 114.555 406.744 114.555H397.332C395.814 114.555 395.146 113.887 395.146 112.369V103.079C395.146 101.257 394.539 100.468 392.839 100.468H384.338V112.369C384.338 113.887 383.67 114.555 382.152 114.555Z" fill="white"/>
<defs>
<linearGradient id="paint0_linear_431_820" x1="249.48" y1="2.97502e-06" x2="249.48" y2="187.11" gradientUnits="userSpaceOnUse">
<stop stop-color="#534F54"/>
<stop offset="0.49" stop-color="#534F54"/>
<stop offset="0.5" stop-color="#4B464C"/>
<stop offset="1" stop-color="#4B464C"/>
</linearGradient>
</defs>
</svg>
