<svg width="500" height="192" viewBox="0 0 500 192" fill="none" xmlns="http://www.w3.org/2000/svg">
<rect width="500" height="192" rx="71.3246" fill="url(#paint0_linear_431_822)"/>
<path d="M66.1568 118H51.3319C41.1245 118 36.3854 114.051 36.3854 105.605V86.7096C36.3854 78.2035 41.1245 74.2543 51.3319 74.2543H66.1568C67.6758 74.2543 68.3441 74.9226 68.3441 76.4415V83.7933C68.3441 85.3122 67.6758 85.9805 66.1568 85.9805H53.9445C51.3926 85.9805 50.2382 86.9527 50.2382 89.0184V103.479C50.2382 105.484 51.3926 106.395 53.9445 106.395H66.1568C67.6758 106.395 68.3441 107.064 68.3441 108.583V115.813C68.3441 117.332 67.6758 118 66.1568 118ZM118.047 106.517C118.047 113.929 114.401 118.911 99.212 118.911C84.0225 118.911 80.3163 113.929 80.3163 106.517V85.7983C80.3163 78.3858 84.0225 73.3429 99.212 73.3429C114.401 73.3429 118.047 78.3858 118.047 85.7983V106.517ZM94.1083 104.329C94.1083 105.97 94.8374 107.185 99.212 107.185C103.647 107.185 104.316 105.97 104.316 104.329V87.9856C104.316 86.4058 103.647 85.1907 99.212 85.1907C94.8374 85.1907 94.1083 86.4058 94.1083 87.9856V104.329ZM143.159 118H134.045C132.526 118 131.858 117.332 131.858 115.813V76.4415C131.858 74.9226 132.526 74.2543 134.045 74.2543H140.364C141.943 74.2543 142.915 74.6796 143.948 75.8947L155.735 89.383V76.4415C155.735 74.9226 156.404 74.2543 157.923 74.2543H167.036C168.555 74.2543 169.224 74.9226 169.224 76.4415V115.813C169.224 117.332 168.555 118 167.036 118H157.923C156.404 118 155.735 117.332 155.735 115.813V108.339L145.346 95.7626V115.813C145.346 117.332 144.677 118 143.159 118ZM204.338 118H194.495C192.976 118 192.307 117.332 192.307 115.813V85.9805H183.376C181.857 85.9805 181.189 85.3122 181.189 83.7933V76.4415C181.189 74.9226 181.857 74.2543 183.376 74.2543H215.456C216.975 74.2543 217.644 74.9226 217.644 76.4415V83.7933C217.644 85.3122 216.975 85.9805 215.456 85.9805H206.525V115.813C206.525 117.332 205.856 118 204.338 118ZM230.843 118C229.324 118 228.656 117.332 228.656 115.813V108.583C228.656 107.064 229.324 106.395 230.843 106.395H236.858V85.9805H230.843C229.324 85.9805 228.656 85.3122 228.656 83.7933V76.4415C228.656 74.9226 229.324 74.2543 230.843 74.2543H256.726C258.245 74.2543 258.913 74.9226 258.913 76.4415V83.7933C258.913 85.3122 258.245 85.9805 256.726 85.9805H250.833V106.395H256.726C258.245 106.395 258.913 107.064 258.913 108.583V115.813C258.913 117.332 258.245 118 256.726 118H230.843ZM283.792 118H274.678C273.159 118 272.491 117.332 272.491 115.813V76.4415C272.491 74.9226 273.159 74.2543 274.678 74.2543H280.997C282.577 74.2543 283.549 74.6796 284.582 75.8947L296.369 89.383V76.4415C296.369 74.9226 297.037 74.2543 298.556 74.2543H307.67C309.189 74.2543 309.857 74.9226 309.857 76.4415V115.813C309.857 117.332 309.189 118 307.67 118H298.556C297.037 118 296.369 117.332 296.369 115.813V108.339L285.979 95.7626V115.813C285.979 117.332 285.311 118 283.792 118ZM361.558 106.517C361.558 113.929 357.852 118.911 342.784 118.911C327.716 118.911 324.009 113.929 324.009 106.517V76.4415C324.009 74.9226 324.678 74.2543 326.197 74.2543H335.736C337.255 74.2543 337.923 74.9226 337.923 76.4415V104.147C337.923 105.788 338.652 107.003 342.905 107.003C347.219 107.003 347.948 105.788 347.948 104.147V76.4415C347.948 74.9226 348.556 74.2543 350.135 74.2543H359.371C360.889 74.2543 361.558 74.9226 361.558 76.4415V106.517ZM391.578 87.0134L388.722 96.2486H398.261L395.406 87.0134C395.102 86.2843 394.737 85.9805 394.251 85.9805H392.732C392.246 85.9805 391.882 86.2843 391.578 87.0134ZM388.115 115.813C388.115 117.332 387.446 118 385.927 118H376.996C375.477 118 374.809 117.332 374.809 115.813V99.7726C374.809 97.3423 375.538 94.3044 377.178 90.0513L382.464 76.2593C382.95 74.8618 383.922 74.2543 385.563 74.2543H401.907C403.487 74.2543 404.459 74.8618 404.945 76.2593L410.231 90.0513C411.871 94.3044 412.6 97.3423 412.6 99.7726V115.813C412.6 117.332 411.932 118 410.413 118H401.238C399.598 118 398.869 117.332 398.869 115.813V107.307H388.115V115.813ZM439.909 85.1907V92.9677H444.466C446.592 92.9677 447.139 91.7526 447.139 90.1121V88.0463C447.139 86.4058 446.592 85.1907 444.466 85.1907H439.909ZM437.722 118H428.365C426.846 118 426.178 117.332 426.178 115.813V76.4415C426.178 74.9226 426.846 74.2543 428.365 74.2543H448.597C457.711 74.2543 460.567 78.3858 460.567 84.4008V87.1957C460.567 90.5982 459.716 93.0285 457.164 94.1221C461.6 94.6082 464.516 97.8284 464.516 102.932V115.813C464.516 117.332 463.848 118 462.329 118H452.911C451.392 118 450.724 117.332 450.724 115.813V106.517C450.724 104.694 450.116 103.904 448.415 103.904H439.909V115.813C439.909 117.332 439.241 118 437.722 118Z" fill="#FFF8F8"/>
<defs>
<linearGradient id="paint0_linear_431_822" x1="250" y1="0" x2="250" y2="192" gradientUnits="userSpaceOnUse">
<stop stop-color="#DD475B"/>
<stop offset="0.49" stop-color="#DD475B"/>
<stop offset="0.5" stop-color="#AA2453"/>
<stop offset="1" stop-color="#AA2453"/>
</linearGradient>
</defs>
</svg>
