<svg width="336" height="336" viewBox="0 0 336 336" fill="none" xmlns="http://www.w3.org/2000/svg">
<mask id="mask0_431_782" style="mask-type:alpha" maskUnits="userSpaceOnUse" x="0" y="0" width="336" height="336">
<rect width="336" height="336" rx="74.6667" fill="#333036"/>
</mask>
<g mask="url(#mask0_431_782)">
<rect width="336" height="336" rx="74.6667" fill="#28958E"/>
<path d="M136 268V336H200V268C200 261.373 194.627 256 188 256H148C141.373 256 136 261.373 136 268Z" fill="url(#paint0_linear_431_782)"/>
<path d="M74 208V336H136V268C136 261.373 141.373 256 148 256H188C194.627 256 200 261.373 200 268V336H262V208H168H74Z" fill="url(#paint1_linear_431_782)"/>
<path d="M24 208L156.686 75.3137C162.935 69.0653 173.065 69.0653 179.314 75.3137L312 208H168H24Z" fill="url(#paint2_linear_431_782)"/>
</g>
<defs>
<linearGradient id="paint0_linear_431_782" x1="136" y1="296" x2="200" y2="296" gradientUnits="userSpaceOnUse">
<stop stop-color="#474248"/>
<stop offset="0.5" stop-color="#474248"/>
<stop offset="0.5" stop-color="#333036"/>
<stop offset="1" stop-color="#333036"/>
</linearGradient>
<linearGradient id="paint1_linear_431_782" x1="74" y1="272" x2="262" y2="272" gradientUnits="userSpaceOnUse">
<stop stop-color="#0D6E74"/>
<stop offset="0.5" stop-color="#0D6E74"/>
<stop offset="0.5" stop-color="#0C545C"/>
<stop offset="1" stop-color="#0C545C"/>
</linearGradient>
<linearGradient id="paint2_linear_431_782" x1="24" y1="136" x2="312" y2="136" gradientUnits="userSpaceOnUse">
<stop stop-color="#474248"/>
<stop offset="0.5" stop-color="#474248"/>
<stop offset="0.5" stop-color="#333036"/>
<stop offset="1" stop-color="#333036"/>
</linearGradient>
</defs>
</svg>
