<svg width="899" height="610" viewBox="0 0 899 610" fill="none" xmlns="http://www.w3.org/2000/svg">
<path d="M128.111 545.994H770.492C843.355 545.994 898.044 486.605 898.597 419.188V480.994C899.226 549.312 844.144 609.994 770.492 609.994H128.111C54.4565 609.994 -0.625495 549.312 0.00536436 480.994V419.402C0.673333 486.731 55.3237 545.994 128.111 545.994Z" fill="#AA3D5B"/>
<path fill-rule="evenodd" clip-rule="evenodd" d="M68.2148 391.278C65.2539 399.877 64.043 408.572 64.3457 417C64.7084 427.124 67.252 436.86 71.5566 445.577C82.0426 466.812 102.981 482 128.316 482H770.285C795.621 482 816.559 466.812 827.045 445.577C831.35 436.86 833.893 427.124 834.256 417C834.559 408.572 833.348 399.877 830.387 391.278L760.541 188.479C751.344 161.774 727.326 144 700.439 144H198.16C171.273 144 147.258 161.774 138.061 188.479L68.2148 391.278ZM898.598 419.193C898.719 404.407 896.236 389.234 890.77 374.217L820.881 182.217C802.475 131.653 754.41 98 700.602 98H198.002C144.191 98 96.127 131.653 77.7227 182.217L7.83203 374.217C2.63672 388.492 0.128906 402.908 0 417L0.00195312 417.509L0.00585938 419.408C0.673828 486.737 55.3242 546 128.111 546H770.492C843.355 546 898.045 486.611 898.598 419.193Z" fill="#DD475B"/>
<path fill-rule="evenodd" clip-rule="evenodd" d="M827.041 445.577L760.537 252.479C751.34 225.774 727.323 208 700.436 208H198.157C171.27 208 147.254 225.774 138.057 252.479L71.553 445.577C67.2483 436.859 64.7053 427.123 64.3421 417C64.0393 408.572 65.2503 399.877 68.2112 391.278L138.057 188.479C147.254 161.774 171.27 144 198.157 144H700.436C727.323 144 751.34 161.774 760.537 188.479L830.383 391.278C833.344 399.877 834.555 408.572 834.252 417C833.889 427.123 831.346 436.859 827.041 445.577Z" fill="#991C52"/>
<path fill-rule="evenodd" clip-rule="evenodd" d="M128.314 482C102.979 482 82.041 466.812 71.5547 445.577L138.059 252.479C147.256 225.774 171.271 208 198.158 208H700.438C727.324 208 751.342 225.774 760.539 252.479L827.043 445.577C816.557 466.812 795.619 482 770.283 482H128.314Z" fill="#333036"/>
<path fill-rule="evenodd" clip-rule="evenodd" d="M64.0019 333.967C63.9994 334.312 63.9994 334.656 64.0019 335V333.967ZM833.999 335C834.001 334.656 834.001 334.312 833.999 333.967V335Z" fill="#E37A88"/>
<path d="M64.0019 333.967V335C64.0068 335.668 64.0213 336.335 64.0452 337C65.2913 371.784 92.2795 402 128.016 402H769.985C805.721 402 832.709 371.784 833.955 337C833.979 336.335 833.994 335.668 833.999 335V333.967V271H816.214H81.7865H64.0019V333.967Z" fill="#E37A88"/>
<path d="M67.9143 247.278C64.9534 255.877 63.7424 264.572 64.0452 273C65.2913 307.784 92.2795 338 128.016 338H769.985C805.721 338 832.709 307.784 833.955 273C834.258 264.572 833.047 255.877 830.086 247.278L760.24 44.4785C751.043 17.7744 727.026 0 700.139 0H197.86C170.973 0 146.957 17.7744 137.76 44.4785L67.9143 247.278Z" fill="#E7A3AF"/>
</svg>
