<svg width="899" height="512" viewBox="0 0 899 512" fill="none" xmlns="http://www.w3.org/2000/svg">
<path d="M128.111 447.994H770.492C843.355 447.994 898.044 388.605 898.597 321.188V382.994C899.226 451.312 844.144 511.994 770.492 511.994H128.111C54.4565 511.994 -0.625495 451.312 0.00536436 382.994V321.402C0.673333 388.731 55.3237 447.994 128.111 447.994Z" fill="#520627"/>
<path fill-rule="evenodd" clip-rule="evenodd" d="M68.2148 293.278C65.2539 301.877 64.043 310.572 64.3457 319C65.5918 353.784 92.5801 384 128.316 384H770.285C806.021 384 833.01 353.784 834.256 319C834.559 310.572 833.348 301.877 830.387 293.278L760.541 90.4785C751.344 63.7744 727.326 46 700.439 46H198.16C171.273 46 147.258 63.7744 138.061 90.4785L68.2148 293.278ZM898.598 321.193C898.719 306.407 896.236 291.234 890.77 276.217L820.881 84.2168C802.475 33.6533 754.41 0 700.602 0H198.002C144.191 0 96.127 33.6533 77.7227 84.2168L7.83203 276.217C2.63672 290.492 0.128906 304.908 0 319L0.00195312 319.509L0.00585938 321.408C0.673828 388.737 55.3242 448 128.111 448H770.492C843.355 448 898.045 388.611 898.598 321.193Z" fill="#6F0F39"/>
<path d="M68.2112 293.278C65.2503 301.877 64.0393 310.572 64.3421 319C65.5881 353.784 92.5764 384 128.313 384H770.281C806.018 384 833.006 353.784 834.252 319C834.555 310.572 833.344 301.877 830.383 293.278L760.537 90.4785C751.34 63.7744 727.323 46 700.436 46H198.157C171.27 46 147.254 63.7744 138.057 90.4785L68.2112 293.278Z" fill="#423D43"/>
</svg>
