<svg width="899" height="512" viewBox="0 0 899 512" fill="none" xmlns="http://www.w3.org/2000/svg">
<path d="M128.111 448.002H770.492C843.355 448.002 898.044 388.613 898.597 321.195V383.002C899.226 451.319 844.144 512.002 770.492 512.002H128.111C54.4565 512.002 -0.625495 451.319 0.00536436 383.002V321.41C0.673333 388.739 55.3237 448.002 128.111 448.002Z" fill="#28958E"/>
<path fill-rule="evenodd" clip-rule="evenodd" d="M68.2148 293.278C65.2539 301.877 64.043 310.572 64.3457 319C65.5918 353.784 92.5801 384 128.316 384H770.285C806.021 384 833.01 353.784 834.256 319C834.559 310.572 833.348 301.877 830.387 293.278L760.541 90.4785C751.344 63.7744 727.326 46 700.439 46H198.16C171.273 46 147.258 63.7744 138.061 90.4785L68.2148 293.278ZM898.598 321.193C898.719 306.407 896.236 291.234 890.77 276.217L820.881 84.2168C802.475 33.6533 754.41 0 700.602 0H198.002C144.191 0 96.127 33.6533 77.7227 84.2168L7.83203 276.217C2.63672 290.492 0.128906 304.908 0 319L0.00195312 319.509L0.00585938 321.408C0.673828 388.737 55.3242 448 128.111 448H770.492C843.355 448 898.045 388.611 898.598 321.193Z" fill="#22BAA6"/>
<path d="M67.9143 293.278C64.9534 301.877 63.7424 310.572 64.0452 319C65.2913 353.784 92.2795 384 128.016 384H769.985C805.721 384 832.709 353.784 833.955 319C834.258 310.572 833.047 301.877 830.086 293.278L760.24 90.4785C751.043 63.7744 727.026 46 700.139 46H197.86C170.973 46 146.957 63.7744 137.76 90.4785L67.9143 293.278Z" fill="#A8FDF2"/>
<path d="M569.163 190.381V239.832L473.672 273.926V190.381L521.418 178.117L569.163 190.381Z" fill="#28958E"/>
<path fill-rule="evenodd" clip-rule="evenodd" d="M473.671 190.381V273.926L378.18 239.832V190.381L425.925 178.117L473.671 190.381Z" fill="#5AE4CD"/>
<path d="M405.697 273.927L305.258 248.356L285.172 256.88L245 273.927L382 319.846H427.836H473.672V273.927L378.181 239.833V190.382L325.344 92.0008V239.833L405.697 273.927Z" fill="#22BAA6"/>
<path fill-rule="evenodd" clip-rule="evenodd" d="M569.163 239.833V190.382L621.999 141.408L622 190.58V239.833L565.343 319.846H473.672V273.927L569.163 239.833Z" fill="#0A7C80"/>
</svg>
