<svg width="336" height="336" viewBox="0 0 336 336" fill="none" xmlns="http://www.w3.org/2000/svg">
<mask id="mask0_390_763" style="mask-type:alpha" maskUnits="userSpaceOnUse" x="0" y="0" width="336" height="336">
<rect width="335.997" height="335.997" rx="74.6659" fill="#333036"/>
</mask>
<g mask="url(#mask0_390_763)">
<rect y="-0.00292969" width="335.997" height="335.997" rx="74.6659" fill="#333036"/>
<path d="M266.271 114.795L257.995 66.9417C257.584 64.5614 257.682 62.1007 258.574 59.8558C263.063 48.5569 274.074 34.882 290.862 51.045C309.426 68.9174 319.706 54.1673 322.526 44.5578C322.57 55.6941 318.375 75.3448 309.762 78.981C300.276 82.9853 285.617 67.4522 271.695 72.7048C268.91 73.7555 267.728 76.6892 268.189 79.6297C269.867 90.3347 274.206 115.494 274.204 116.208C274.193 119.457 274.278 119.669 274.467 121.596L274.47 121.617L274.471 121.628C274.616 123.119 274.77 124.696 274.811 126.378C274.879 129.166 274.636 132.242 273.532 135.687C272.809 137.438 271.827 139.144 270.611 140.753C267.999 144.209 264.309 147.221 259.797 149.291C247.847 154.772 234.652 151.567 230.325 142.133C225.998 132.699 232.178 120.608 244.127 115.127C251.912 111.557 260.225 111.672 266.271 114.795Z" fill="#DD475B"/>
<path d="M216.475 75.9357L204.892 40.0491C204.316 38.2641 204.123 36.3615 204.564 34.5383C206.783 25.3619 213.756 13.6474 228.426 24.242C244.648 35.9571 250.942 23.4957 252.061 15.8003C253.31 24.3571 252.229 39.9222 246.004 43.6575C239.148 47.7708 226.183 37.4282 216.053 42.9853C214.027 44.0968 213.438 46.4813 214.113 48.6917C216.572 56.7385 222.652 75.6075 222.728 76.1566C223.074 78.6556 223.163 78.8096 223.519 80.2708L223.523 80.2865L223.525 80.2945C223.799 81.4251 224.09 82.621 224.305 83.909C224.661 86.0453 224.81 88.4366 224.337 91.206C223.972 92.631 223.403 94.0495 222.644 95.4195C221.013 98.3613 218.505 101.079 215.261 103.163C206.672 108.68 196.178 107.656 191.822 100.875C187.466 94.0941 190.899 84.1247 199.487 78.6073C205.083 75.0132 211.486 74.1947 216.475 75.9357Z" fill="#DD475B"/>
<path d="M70.7656 240.972L136.041 278.658L57.8501 385.823L17.0533 362.269L70.7656 240.972Z" fill="#AA3D5B"/>
<path d="M57.8689 385.827L136.059 278.663L103.422 259.819L37.4705 374.05L57.8689 385.827Z" fill="#991C52"/>
<circle cx="136.956" cy="201.815" r="83.319" transform="rotate(30 136.956 201.815)" fill="#DD475B"/>
<mask id="mask1_390_763" style="mask-type:alpha" maskUnits="userSpaceOnUse" x="53" y="118" width="168" height="168">
<path d="M209.113 243.485C186.105 283.336 135.148 296.99 95.2973 273.982C55.4465 250.974 41.7926 200.017 64.8005 160.166C87.8084 120.315 138.765 106.661 178.616 129.669C218.467 152.677 232.121 203.634 209.113 243.485Z" fill="#767676"/>
</mask>
<g mask="url(#mask1_390_763)">
<rect x="183.561" y="121.128" width="98.2824" height="186.022" transform="rotate(30 183.561 121.128)" fill="#AA3D5B"/>
</g>
</g>
</svg>
