<svg width="192" height="192" viewBox="0 0 192 192" fill="none" xmlns="http://www.w3.org/2000/svg">
<path fill-rule="evenodd" clip-rule="evenodd" d="M96 0C105.49 0 110.235 0 113.972 1.45898C116.444 2.42432 118.691 3.83887 120.583 5.62305C122.475 7.40674 123.976 9.5249 124.999 11.856C125.946 13.9966 126.312 16.4927 126.455 20.1406C126.521 22.7705 127.294 25.3413 128.701 27.6128C130.108 29.8848 132.103 31.7827 134.499 33.1294C136.933 34.4121 139.673 35.0918 142.461 35.1055C145.25 35.1187 147.996 34.4653 150.444 33.2065C153.876 31.4976 156.35 30.5566 158.794 30.2495C161.446 29.9199 164.141 30.0854 166.725 30.7378C169.309 31.3901 171.731 32.5161 173.853 34.0513C177.056 36.3809 179.427 40.2422 184.169 47.9692L184.188 48L184.205 48.0278C188.929 55.7559 191.296 59.6299 191.825 63.4082C192.175 65.9082 191.999 68.4492 191.307 70.8853C190.615 73.3218 189.421 75.6055 187.793 77.6064C186.296 79.4497 184.178 80.9951 180.91 82.9438C176.093 85.7856 172.998 90.6431 172.998 96C173.037 98.6309 173.783 101.21 175.167 103.495C176.55 105.78 178.526 107.697 180.91 109.065C184.178 111.005 186.286 112.55 187.793 114.394C189.421 116.395 190.615 118.678 191.307 121.115C191.999 123.551 192.175 126.092 191.825 128.592C191.309 132.357 188.957 136.198 184.278 143.836L184.178 144L184.154 144.039C179.425 151.76 177.055 155.629 173.853 157.949C171.731 159.484 169.309 160.61 166.725 161.262C164.141 161.915 161.446 162.08 158.794 161.75C156.35 161.443 153.876 160.502 150.455 158.793C148.005 157.533 145.257 156.879 142.466 156.892C139.676 156.906 136.935 157.586 134.499 158.871C129.581 161.549 126.659 166.502 126.455 171.859C126.312 175.507 125.936 178.003 124.999 180.144C123.976 182.475 122.475 184.593 120.583 186.377C118.691 188.161 116.444 189.576 113.972 190.541C110.235 192 105.49 192 96 192C86.5102 192 81.7652 192 78.0284 190.541C75.5559 189.576 73.3094 188.161 71.4173 186.377C69.5251 184.593 68.0244 182.475 67.001 180.144C66.054 178.003 65.6875 175.507 65.5449 171.859C65.3413 166.502 62.419 161.559 57.501 158.871C55.0655 157.586 52.3242 156.906 49.5337 156.892C46.7432 156.879 43.9947 157.533 41.5454 158.793C38.1242 160.502 35.6499 161.443 33.2061 161.75C30.5542 162.08 27.8592 161.915 25.2753 161.262C22.6913 160.61 20.269 159.484 18.1466 157.949C14.9436 155.619 12.5732 151.758 7.83087 144.031L7.81165 144L7.79507 143.974C3.07135 136.244 0.703857 132.37 0.174988 128.592C-0.174927 126.092 0.00106812 123.551 0.692932 121.115C1.38477 118.678 2.57892 116.395 4.20715 114.394C5.70395 112.55 7.82184 111.005 11.0903 109.056C15.9065 106.214 19.002 101.357 19.002 96C19.002 90.6431 15.9065 85.7856 11.0903 82.9346C7.82184 80.9951 5.71411 79.4497 4.20715 77.6064C2.57892 75.6055 1.38477 73.3218 0.692932 70.8853C0.00106812 68.4492 -0.174927 65.9082 0.174988 63.4082C0.690613 59.6431 3.04337 55.8018 7.72177 48.1636L7.82184 48C12.5668 40.2529 14.9494 36.3838 18.1466 34.0513C22.4303 30.9531 27.8434 29.5859 33.196 30.2495C35.6499 30.5566 38.1242 31.4976 41.5454 33.2065C43.9947 34.4673 46.7432 35.1211 49.5337 35.1079C52.3242 35.0942 55.0655 34.4136 57.501 33.1294C59.8974 31.7827 61.8924 29.8848 63.2992 27.6128C64.706 25.3413 65.4786 22.7705 65.5449 20.1406C65.6875 16.5024 66.0642 13.9966 67.001 11.856C68.0244 9.5249 69.5251 7.40674 71.4173 5.62305C73.3094 3.83887 75.5559 2.42432 78.0284 1.45898C81.7652 0 86.5102 0 96 0ZM124.57 96.001C124.57 111.781 111.778 124.573 95.9973 124.573C80.2171 124.573 67.4247 111.781 67.4247 96.001C67.4247 80.2217 80.2171 67.4297 95.9973 67.4297C111.778 67.4297 124.57 80.2217 124.57 96.001Z" fill="url(#paint0_linear_438_1737)"/>
<defs>
<linearGradient id="paint0_linear_438_1737" x1="0" y1="96" x2="192" y2="96" gradientUnits="userSpaceOnUse">
<stop stop-color="#534F54"/>
<stop offset="0.49" stop-color="#534F54"/>
<stop offset="0.5" stop-color="#4B464C"/>
<stop offset="1" stop-color="#4B464C"/>
</linearGradient>
</defs>
</svg>
