<svg width="336" height="336" viewBox="0 0 336 336" fill="none" xmlns="http://www.w3.org/2000/svg">
<mask id="mask0_390_781" style="mask-type:alpha" maskUnits="userSpaceOnUse" x="0" y="0" width="336" height="336">
<rect width="335.929" height="335.929" rx="74.6508" fill="#333036"/>
</mask>
<g mask="url(#mask0_390_781)">
<rect x="-0.0390625" y="-0.0957031" width="335.929" height="335.929" rx="74.6508" fill="#333036"/>
<path d="M185.994 282.005L251.256 244.326L304.957 365.599L264.169 389.148L185.994 282.005Z" fill="#AA3D5B"/>
<path d="M304.967 365.594L251.266 244.321L218.635 263.16L284.573 377.368L304.967 365.594Z" fill="#991C52"/>
<circle cx="181.336" cy="199.809" r="83.3021" transform="rotate(-30 181.336 199.809)" fill="#DD475B"/>
<mask id="mask1_390_781" style="mask-type:alpha" maskUnits="userSpaceOnUse" x="98" y="116" width="167" height="168">
<path d="M253.492 158.165C276.495 198.008 262.844 248.954 223.002 271.958C183.159 294.961 132.212 281.31 109.209 241.467C86.2054 201.624 99.8566 150.677 139.699 127.674C179.542 104.671 230.489 118.322 253.492 158.165Z" fill="#767676"/>
</mask>
<g mask="url(#mask1_390_781)">
<rect x="134.77" y="119.13" width="98.2625" height="185.985" transform="rotate(-30 134.77 119.13)" fill="#AA3D5B"/>
</g>
<path d="M93.9736 147.345C93.4102 148.33 92.8559 149.319 92.3137 150.323C91.7653 151.33 91.2273 152.349 90.6995 153.38L25.9686 138.318C31.7541 123.985 38.5397 110.682 46.246 98.5789L96.3572 143.352C96.0761 143.802 95.8002 144.256 95.5281 144.709C95.3131 145.061 95.102 145.412 94.8923 145.768L94.8915 145.77C94.5825 146.294 94.2736 146.818 93.9736 147.345Z" fill="#DD475B"/>
<path d="M118.274 117.183C117.902 117.503 117.531 117.829 117.162 118.161L65.1831 73.3489C73.5126 63.9595 82.5716 55.6961 92.2983 48.6918L124.573 112.141C124.138 112.453 123.711 112.776 123.283 113.099C122.856 113.423 122.434 113.75 122.009 114.085C121.658 114.363 121.311 114.64 120.961 114.924C120.857 115.001 120.753 115.09 120.65 115.173C120.393 115.382 120.142 115.597 119.885 115.807C119.736 115.926 119.589 116.052 119.442 116.177C119.053 116.508 118.66 116.84 118.274 117.183Z" fill="#DD475B"/>
<path d="M141.39 25.8664L135.536 27.4349C128.585 29.4626 121.849 32.0232 115.343 35.0868L155.275 97.663C158.288 96.9171 161.314 96.3394 164.352 95.9299L155.486 23.1835C150.699 23.8422 146 24.7393 141.39 25.8664Z" fill="#DD475B"/>
</g>
</svg>
