<svg width="899" height="512" viewBox="0 0 899 512" fill="none" xmlns="http://www.w3.org/2000/svg">
<path d="M128.112 447.999H770.501C843.365 447.999 898.055 388.61 898.607 321.191V382.999C899.236 451.317 844.154 512 770.501 512H128.112C54.4572 512 -0.625502 451.317 0.00536443 382.999V321.406C0.673341 388.736 55.3244 447.999 128.112 447.999Z" fill="#AA3D5B"/>
<path fill-rule="evenodd" clip-rule="evenodd" d="M68.2156 293.282C65.2547 301.88 64.0437 310.576 64.3464 319.004C65.5925 353.788 92.5811 384.004 128.318 384.004H770.294C806.031 384.004 833.019 353.788 834.265 319.004C834.568 310.576 833.357 301.88 830.396 293.282L760.55 90.4796C751.352 63.7751 727.334 46.0005 700.447 46.0005H198.162C171.275 46.0005 147.259 63.7751 138.062 90.4796L68.2156 293.282ZM898.608 321.197C898.729 306.411 896.247 291.238 890.78 276.22L820.89 84.2178C802.484 33.6537 754.419 0 700.61 0H198.004C144.193 0 96.1281 33.6537 77.7235 84.2178L7.83212 276.22C2.63675 290.496 0.128908 304.912 0 319.004L0.00195315 319.512L0.00585944 321.412C0.673836 388.742 55.3249 448.005 128.113 448.005H770.501C843.365 448.005 898.055 388.616 898.608 321.197Z" fill="#DD475B"/>
<path d="M68.2122 293.281C65.2512 301.88 64.0403 310.575 64.343 319.003C65.5891 353.788 92.5777 384.004 128.314 384.004H449.301H770.29C806.027 384.004 833.016 353.788 834.262 319.003C834.565 310.575 833.354 301.88 830.393 293.281L760.546 90.479C751.349 63.7746 727.331 46 700.444 46H449.301H198.159C171.272 46 147.256 63.7746 138.059 90.479L68.2122 293.281Z" fill="#E7A3AF"/>
<path d="M569.163 190.381V239.832L473.672 273.926V190.381L521.418 178.117L569.163 190.381Z" fill="#BA3958"/>
<path fill-rule="evenodd" clip-rule="evenodd" d="M473.671 190.381V273.926L378.18 239.832V190.381L425.925 178.117L473.671 190.381Z" fill="#E37A88"/>
<path d="M405.697 273.927L305.258 248.356L285.172 256.88L245 273.927L382 319.846H427.836H473.672V273.927L378.181 239.833V190.382L325.344 92.0008V239.833L405.697 273.927Z" fill="#DD475B"/>
<path fill-rule="evenodd" clip-rule="evenodd" d="M569.163 239.833V190.382L621.999 141.408L622 190.58V239.833L565.343 319.846H473.672V273.927L569.163 239.833Z" fill="#991C52"/>
</svg>
