<svg width="289" height="416" viewBox="0 0 289 416" fill="none" xmlns="http://www.w3.org/2000/svg">
<path d="M144.126 416C223.725 416 288.252 351.473 288.252 271.874C288.252 252.586 279.789 226.682 266.965 198.501C214.879 247.635 180.813 53.7197 180.813 0C136.265 64.8567 60.2709 136.92 66.1669 206.362C47.1685 203.087 49.0272 144.781 37.9969 127.748C30.7906 168.365 0 201.776 0 271.874C0 351.473 64.5274 416 144.126 416Z" fill="#5D595E"/>
<path d="M93.6819 25.5496C67.4772 49.658 72.7181 83.2 78.6142 96.9575L61.6103 73.7326C55.0636 64.7909 51.9372 54.0433 60.2363 46.699C66.5628 41.1002 77.017 33.9994 93.6819 25.5496Z" fill="#5D595E"/>
<path d="M144.128 393.075C178.138 393.075 205.709 365.56 205.709 331.339C205.709 302.37 159.803 237.893 159.803 214.883C140.769 242.664 108.299 273.532 110.818 303.277C102.701 301.874 104.948 289.001 100.235 281.705C97.156 299.103 82.5469 301.313 82.5469 331.339C82.5469 365.435 110.118 393.075 144.128 393.075Z" fill="#333036"/>
</svg>
